<svg width="41" height="49" viewBox="0 0 41 49" fill="none" xmlns="http://www.w3.org/2000/svg">
<path d="M28.2691 47.0718C28.7558 46.9861 29.0822 46.5301 28.9981 46.0533C28.8192 45.0381 25.1478 38.8062 23.7539 34.4232C23.5863 33.8961 24.2201 33.5626 24.601 33.9482C26.4266 35.7964 28.2897 37.7887 32.2885 37.1392C39.7387 35.9292 42.7511 27.9725 39.2582 21.831C37.5456 18.8196 17.9963 0.142576 15.8538 0.520152C13.7115 0.897714 1.72496 25.1327 1.14502 28.5481C-0.037911 35.5137 5.51309 41.9611 12.9281 40.5513C16.9081 39.7946 17.9778 37.2854 19.0615 34.9245C19.2877 34.4319 19.9973 34.5286 20.02 35.0812C20.2085 39.6767 18.8887 46.7883 19.0676 47.8035C19.1517 48.2802 19.6142 48.5972 20.101 48.5114L28.2691 47.0718Z" fill="#211C1D"/>
</svg>
