<svg width="32" height="35" viewBox="0 0 32 35" fill="none" xmlns="http://www.w3.org/2000/svg">
<path d="M18.9689 34.6916C19.3498 34.6945 19.6608 34.4139 19.6634 34.0648C19.6692 33.3215 17.7535 28.4214 17.307 25.1308C17.2534 24.7351 17.7803 24.5816 18.0154 24.905C19.1421 26.4547 20.2772 28.1115 23.3994 28.1748C29.2163 28.2928 32.6081 23.0453 30.8152 18.2327C29.9361 15.873 17.7157 0.068052 16.0388 0.0551298C14.3619 0.042208 1.89951 15.6571 0.984224 18.003C-0.882608 22.7874 2.42805 28.0865 8.24607 28.0581C11.3689 28.043 12.5293 26.4038 13.6797 24.8716C13.9198 24.5519 14.4443 24.7135 14.3846 25.1083C13.8875 28.3917 11.8966 33.2616 11.8909 34.005C11.8882 34.354 12.1948 34.6394 12.5757 34.6423L18.9689 34.6916Z" fill="#211C1D"/>
</svg>
