<svg width="35" height="73" viewBox="0 0 35 73" fill="none" xmlns="http://www.w3.org/2000/svg">
<path d="M8.19092 40.2603C7.18994 40.2603 6.5293 39.6797 6.5293 38.7588C6.5293 38.3584 6.62939 37.978 6.78955 37.4976L15.0176 14.4951C15.5181 13.0938 16.2188 12.4531 17.5 12.4531C18.7812 12.4531 19.4819 13.0938 19.9824 14.4951L28.2104 37.4976C28.3706 37.938 28.4707 38.3584 28.4707 38.7388C28.4707 39.6797 27.8101 40.2603 26.7891 40.2603C25.8281 40.2603 25.2876 39.7998 24.9072 38.6187L22.605 31.792H12.375L10.0728 38.6187C9.69238 39.8198 9.15186 40.2603 8.19092 40.2603ZM13.3159 28.9692H21.6641L17.5601 16.7974H17.4199L13.3159 28.9692Z" fill="#BC1E24"/>
<path d="M18.1801 48.104C18.1038 47.9653 17.8962 47.9653 17.8199 48.104C15.5263 52.2724 13.8722 54.4782 10.5553 57.8648C10.4816 57.9401 10.4816 58.0599 10.5553 58.1352C13.8722 61.5218 15.5263 63.7276 17.8199 67.896C17.8962 68.0347 18.1038 68.0347 18.1801 67.896C20.4737 63.7276 22.1278 61.5218 25.4447 58.1352C25.5184 58.0599 25.5184 57.9401 25.4447 57.8648C22.1278 54.4782 20.4737 52.2724 18.1801 48.104Z" fill="#BC1E24"/>
</svg>
